PathFileType	4	(x/y/z)	S09_M20_T05
DataRate	CameraRate	NumFrames	NumMarkers	Units	OrigDataRate	OrigDataStartFrame	OrigNumFrames
240	240	11	51	mm	240	291	580
Frame#	Time	Sternum			R.Acromium			L.Acromium			Top.Head			R.ASIS			L.ASIS			R.PSIS			L.PSIS			R.Great.Tro			L.Great.Tro			R.Iliac.Crest			L.Iliac.Crest			V.Sacral			R.Thigh.Upper.Post			R.Thigh.Lower.Ant			R.Thigh.Lower.Post			R.Thigh.Upper.Ant			R.Knee.Lat			R.Knee.Med			R.Shank.Upper.Post			R.Shank.Lower.Ant			R.Shank.Lower.Post			R.Shank.Upper.Ant			R.Ankle.Lat			R.Ankle.Med			R.Heel.Upper			R.Heel.Med			R.Heel.Lat			R.Toe.Lat			R.Toe.Med			R.Toe.Tip			L.Thigh.Upper.Post			L.Thigh.Lower.Ant			L.Thigh.Lower.Post			L.Thigh.Upper.Ant			L.Knee.Lat			L.Knee.Med			L.Shank.Upper.Post			L.Shank.Lower.Ant			L.Shank.Lower.Post			L.Shank.Upper.Ant			L.Ankle.Lat			L.Ankle.Med			L.Heel.Upper			L.Heel.Med			L.Heel.Lat			L.Toe.Lat			L.Toe.Med			L.Toe.Tip			Cervical.Spine			Back			
		X1	Y1	Z1	X2	Y2	Z2	X3	Y3	Z3	X4	Y4	Z4	X5	Y5	Z5	X6	Y6	Z6	X7	Y7	Z7	X8	Y8	Z8	X9	Y9	Z9	X10	Y10	Z10	X11	Y11	Z11	X12	Y12	Z12	X13	Y13	Z13	X14	Y14	Z14	X15	Y15	Z15	X16	Y16	Z16	X17	Y17	Z17	X18	Y18	Z18	X19	Y19	Z19	X20	Y20	Z20	X21	Y21	Z21	X22	Y22	Z22	X23	Y23	Z23	X24	Y24	Z24	X25	Y25	Z25	X26	Y26	Z26	X27	Y27	Z27	X28	Y28	Z28	X29	Y29	Z29	X30	Y30	Z30	X31	Y31	Z31	X32	Y32	Z32	X33	Y33	Z33	X34	Y34	Z34	X35	Y35	Z35	X36	Y36	Z36	X37	Y37	Z37	X38	Y38	Z38	X39	Y39	Z39	X40	Y40	Z40	X41	Y41	Z41	X42	Y42	Z42	X43	Y43	Z43	X44	Y44	Z44	X45	Y45	Z45	X46	Y46	Z46	X47	Y47	Z47	X48	Y48	Z48	X49	Y49	Z49	X50	Y50	Z50	X51	Y51	Z51	

291	1.2083	755.64	1194	334.95	616.65	1434.3	470.9	608.67	1427.3	169.09	610.62	1731	304.09	711.93	1020.8	447.66	725.63	1021.8	199.27	495.66	1047.4	354.77	508.22	1042.2	265.54	621.6	936.47	514.55	662	928.11	126.17	618.57	1101.2	488.19	613.65	1110	157.31	481.86	1010	305.99	577.45	687.47	475.09	629.51	578.06	429.12	555.06	600.43	444.06	643.77	662.42	461.39	588.45	509.05	416.09	577.16	507.21	296.48	472.8	356.8	422.64	522.26	282.16	402.12	449.66	284.5	409.06	538.58	353.02	417.33	424.79	100.71	381.65	450.13	108.92	291.52	354.39	87.239	328.75	362.33	53.736	300.93	355.12	57.602	365.34	514.74	40.076	416	562.22	39.783	309.34	612.15	48.998	355.74	698.09	662.73	169.65	810.63	605.51	161.15	748.81	587.96	187.32	762.98	678.04	139.42	827.11	531.81	171.96	849.65	547.23	311.25	816.81	396.29	161.66	902.46	326.44	163.97	838.03	322.06	164.52	880.65	401.1	161.95	916.78	133.18	176.04	945.9	133.77	265.86	869.65	72.802	237.33	893.86	55.265	267.14	876.12	45.65	209.18	1031.2	96.536	131.5	1078.8	117.97	232.53	1112.6	147.85	167.57	532.18	1479.9	331.75	493.19	1209.6	321.74
292	1.2125	760.53	1193.1	335.3	621.37	1433.4	470.93	614.01	1426.5	169.08	616.01	1730.1	303.95	716.27	1020.1	448.05	731.21	1021	199.72	500.47	1046.6	353.9	513.49	1041.3	264.74	625.5	935.9	514.53	667.89	927.23	126.31	622.58	1100.5	488.05	619.45	1109.1	157.16	486.92	1009.1	305.08	580.24	687.2	474.99	631.9	577.5	429.25	557.51	600.25	443.94	646.47	661.83	461.47	590.38	508.63	416.14	579.48	506.76	296.54	473.91	356.98	422.56	523.11	282.08	402.1	450.51	284.76	408.89	539.68	352.88	417.25	425.01	100.98	381.53	450.42	109.06	291.38	354.57	87.54	328.62	362.45	53.999	300.82	355.24	57.934	365.24	514.78	40.099	415.97	562.32	39.705	309.38	612.25	48.851	355.79	704.16	661.83	169.97	816.79	604.96	161.65	755	587.24	187.75	768.96	677.34	139.82	833.86	531.54	172.42	855.71	546.9	311.89	826.13	395.66	162.04	913.15	327.54	164.42	848.82	321.86	164.89	889.87	401.73	162.4	931.51	134.49	176.5	960.51	135.77	266.32	885.56	73.136	237.77	910.09	56.17	267.61	892.68	46.08	209.64	1046.7	100.14	132.13	1093.7	122.74	233.22	1126.9	153.24	168.27	537.26	1479.1	331.6	498.12	1208.8	321.24
293	1.2167	765.42	1192.3	335.65	626.1	1432.5	470.94	619.36	1425.8	169.06	621.4	1729.3	303.81	720.63	1019.4	448.44	736.8	1020.1	200.15	505.29	1045.8	353.04	518.78	1040.4	263.95	629.42	935.32	514.51	673.8	926.31	126.43	626.61	1099.8	487.89	625.25	1108.2	157	492	1008.2	304.17	583.03	686.92	474.88	634.29	576.94	429.39	559.95	600.08	443.81	649.16	661.23	461.55	592.31	508.22	416.18	581.8	506.3	296.6	475.03	357.16	422.46	523.97	282.01	402.08	451.38	285.02	408.7	540.77	352.74	417.17	425.24	101.25	381.4	450.73	109.21	291.22	354.76	87.851	328.49	362.58	54.273	300.7	355.35	58.276	365.13	514.82	40.124	415.95	562.42	39.632	309.42	612.35	48.706	355.83	710.24	660.9	170.26	822.96	604.39	162.11	761.19	586.5	188.13	774.95	676.63	140.2	840.6	531.22	172.85	861.78	546.53	312.48	835.39	395.03	162.43	923.73	328.63	164.87	859.53	321.69	165.29	899.01	402.34	162.85	946.06	135.87	177.01	974.93	137.86	266.83	901.3	73.6	238.27	926.12	57.213	268.17	909.04	46.646	210.19	1062	103.81	132.79	1108.4	127.57	233.93	1141	158.66	168.98	542.35	1478.3	331.45	503.07	1208	320.72
294	1.2208	770.32	1191.4	335.99	630.85	1431.6	470.95	624.73	1425	169.03	626.8	1728.4	303.67	725.02	1018.6	448.81	742.4	1019.2	200.59	510.14	1044.9	352.17	524.1	1039.5	263.17	633.37	934.72	514.48	679.72	925.37	126.56	630.67	1099	487.72	631.06	1107.2	156.83	497.11	1007.2	303.27	585.82	686.64	474.77	636.67	576.37	429.53	562.37	599.9	443.68	651.85	660.63	461.65	594.23	507.8	416.23	584.13	505.84	296.66	476.16	357.33	422.34	524.83	281.94	402.07	452.25	285.28	408.51	541.88	352.6	417.09	425.47	101.54	381.27	451.03	109.36	291.07	354.96	88.172	328.35	362.71	54.557	300.58	355.47	58.627	365.02	514.85	40.149	415.92	562.52	39.564	309.46	612.45	48.564	355.88	716.34	659.96	170.53	829.13	603.79	162.54	767.38	585.73	188.48	780.95	675.89	140.55	847.32	530.87	173.26	867.87	546.13	313.03	844.59	394.4	162.83	934.2	329.73	165.33	870.14	321.54	165.72	908.07	402.94	163.29	960.41	137.33	177.56	989.15	140.03	267.37	916.84	74.185	238.83	941.94	58.38	268.79	925.2	47.339	210.8	1077.1	107.53	133.48	1122.8	132.43	234.66	1154.9	164.08	169.71	547.46	1477.4	331.29	508.04	1207.2	320.18
295	1.225	775.22	1190.4	336.32	635.61	1430.6	470.94	630.11	1424.1	168.99	632.21	1727.4	303.51	729.43	1017.9	449.17	748.01	1018.3	201.01	515	1044.1	351.31	529.44	1038.5	262.39	637.35	934.1	514.44	685.65	924.41	126.68	634.77	1098.2	487.53	636.87	1106.2	156.66	502.24	1006.3	302.37	588.6	686.35	474.66	639.04	575.8	429.68	564.79	599.72	443.55	654.54	660.02	461.76	596.16	507.38	416.27	586.47	505.37	296.72	477.3	357.51	422.21	525.7	281.87	402.04	453.13	285.56	408.32	542.99	352.47	417.01	425.7	101.83	381.13	451.35	109.51	290.91	355.16	88.501	328.21	362.85	54.851	300.45	355.59	58.988	364.91	514.89	40.176	415.89	562.62	39.502	309.49	612.55	48.425	355.93	722.45	659	170.77	835.32	603.17	162.94	773.58	584.94	188.79	786.97	675.13	140.88	854.03	530.49	173.64	873.98	545.71	313.55	853.73	393.78	163.24	944.54	330.83	165.79	880.65	321.41	166.17	917.05	403.51	163.72	974.55	138.86	178.16	1003.2	142.27	267.95	932.19	74.882	239.45	957.55	59.661	269.47	941.14	48.148	211.47	1091.9	111.28	134.2	1136.9	137.32	235.4	1168.4	169.51	170.44	552.58	1476.5	331.12	513.03	1206.3	319.62
296	1.2292	780.14	1189.5	336.64	640.39	1429.6	470.91	635.51	1423.3	168.94	637.62	1726.5	303.36	733.87	1017.1	449.53	753.63	1017.3	201.42	519.89	1043.2	350.45	534.81	1037.5	261.63	641.34	933.47	514.4	691.59	923.43	126.8	638.9	1097.4	487.33	642.68	1105.2	156.48	507.4	1005.3	301.48	591.38	686.07	474.54	641.39	575.21	429.84	567.19	599.54	443.42	657.22	659.4	461.89	598.09	506.97	416.31	588.82	504.89	296.78	478.45	357.69	422.06	526.58	281.81	402.02	454.01	285.83	408.11	544.11	352.34	416.93	425.93	102.12	380.99	451.66	109.67	290.75	355.36	88.84	328.06	362.99	55.154	300.32	355.72	59.358	364.79	514.93	40.204	415.86	562.72	39.445	309.51	612.65	48.288	355.97	728.59	658.03	170.98	841.52	602.53	163.31	779.79	584.13	189.07	793.02	674.36	141.18	860.73	530.07	174.01	880.12	545.26	314.02	862.8	393.16	163.67	954.77	331.91	166.26	891.06	321.31	166.63	925.94	404.06	164.15	988.49	140.43	178.79	1017	144.56	268.56	947.32	75.68	240.13	972.94	61.043	270.21	956.86	49.061	212.21	1106.4	115.05	134.94	1150.8	142.22	236.14	1181.7	174.9	171.16	557.72	1475.6	330.95	518.04	1205.4	319.05
297	1.2333	785.07	1188.5	336.96	645.18	1428.6	470.88	640.92	1422.4	168.89	643.04	1725.5	303.2	738.33	1016.2	449.86	759.27	1016.4	201.83	524.8	1042.3	349.6	540.2	1036.4	260.87	645.36	932.82	514.35	697.55	922.43	126.92	643.09	1096.6	487.11	648.49	1104.1	156.3	512.57	1004.3	300.59	594.15	685.78	474.41	643.74	574.61	430.01	569.59	599.36	443.27	659.89	658.77	462.02	600.03	506.55	416.35	591.18	504.4	296.83	479.62	357.87	421.9	527.46	281.75	401.99	454.91	286.12	407.9	545.25	352.22	416.85	426.17	102.42	380.84	451.99	109.83	290.58	355.57	89.189	327.91	363.14	55.467	300.19	355.84	59.738	364.67	514.97	40.233	415.83	562.81	39.393	309.53	612.74	48.153	356.02	734.75	657.05	171.16	847.75	601.86	163.66	786.02	583.31	189.31	799.09	673.57	141.45	867.42	529.62	174.36	886.27	544.78	314.47	871.8	392.54	164.11	964.88	332.99	166.73	901.37	321.22	167.12	934.75	404.58	164.58	1002.2	142.05	179.46	1030.6	146.9	269.21	962.25	76.569	240.85	988.1	62.513	271.01	972.35	50.068	213	1120.6	118.83	135.69	1164.4	147.11	236.89	1194.7	180.26	171.88	562.87	1474.7	330.76	523.07	1204.5	318.46
298	1.2375	790	1187.5	337.27	650	1427.6	470.84	646.36	1421.5	168.82	648.47	1724.5	303.03	742.82	1015.4	450.19	764.92	1015.3	202.23	529.73	1041.3	348.75	545.61	1035.3	260.13	649.4	932.15	514.3	703.52	921.42	127.03	647.33	1095.7	486.89	654.31	1103.1	156.11	517.77	1003.2	299.72	596.92	685.49	474.28	646.09	574.01	430.19	571.96	599.18	443.13	662.56	658.13	462.17	601.96	506.13	416.39	593.55	503.91	296.89	480.81	358.04	421.72	528.35	281.69	401.95	455.82	286.4	407.69	546.39	352.09	416.78	426.41	102.73	380.69	452.31	109.99	290.41	355.79	89.547	327.76	363.28	55.789	300.05	355.98	60.128	364.54	515.01	40.264	415.8	562.91	39.346	309.55	612.84	48.021	356.06	740.94	656.06	171.31	854.01	601.19	163.98	792.28	582.46	189.51	805.19	672.78	141.7	874.12	529.14	174.69	892.46	544.29	314.89	880.75	391.93	164.56	974.87	334.04	167.2	911.58	321.14	167.63	943.49	405.09	165	1015.7	143.71	180.16	1043.9	149.27	269.87	976.95	77.536	241.61	1003	64.058	271.86	987.6	51.157	213.85	1134.6	122.6	136.46	1177.7	151.97	237.63	1207.4	185.56	172.59	568.04	1473.7	330.57	528.12	1203.6	317.86
299	1.2417	794.96	1186.5	337.57	654.83	1426.6	470.78	651.8	1420.6	168.74	653.9	1723.4	302.86	747.33	1014.5	450.5	770.59	1014.3	202.62	534.68	1040.3	347.91	551.05	1034.2	259.41	653.46	931.46	514.25	709.5	920.39	127.14	651.62	1094.8	486.66	660.14	1101.9	155.92	522.98	1002.2	298.86	599.69	685.19	474.14	648.42	573.4	430.38	574.33	599	442.98	665.22	657.48	462.32	603.9	505.71	416.43	595.94	503.41	296.94	482.01	358.22	421.54	529.25	281.64	401.92	456.74	286.69	407.47	547.55	351.96	416.71	426.65	103.05	380.52	452.65	110.15	290.24	356.01	89.916	327.61	363.44	56.122	299.91	356.11	60.529	364.41	515.05	40.296	415.77	563.01	39.302	309.57	612.94	47.891	356.11	747.15	655.06	171.43	860.3	600.49	164.28	798.56	581.61	189.67	811.33	671.97	141.93	880.82	528.63	175.01	898.66	543.78	315.3	889.63	391.33	165.02	984.74	335.08	167.68	921.68	321.08	168.15	952.15	405.56	165.42	1029	145.38	180.88	1057.1	151.66	270.56	991.43	78.572	242.42	1017.7	65.664	272.75	1002.6	52.316	214.74	1148.3	126.35	137.23	1190.8	156.78	238.37	1219.8	190.79	173.29	573.23	1472.7	330.37	533.2	1202.6	317.24
300	1.2458	799.93	1185.4	337.86	659.69	1425.5	470.71	657.27	1419.6	168.66	659.34	1722.4	302.68	751.87	1013.6	450.79	776.27	1013.3	202.99	539.66	1039.4	347.08	556.52	1033.1	258.7	657.53	930.74	514.18	715.49	919.35	127.24	655.96	1093.9	486.42	665.97	1100.8	155.73	528.22	1001.1	298.01	602.46	684.9	474	650.74	572.77	430.58	576.69	598.81	442.83	667.88	656.82	462.48	605.84	505.29	416.46	598.34	502.9	296.98	483.23	358.4	421.34	530.16	281.59	401.87	457.68	286.99	407.25	548.73	351.84	416.64	426.9	103.37	380.36	452.99	110.32	290.07	356.24	90.295	327.45	363.59	56.466	299.77	356.25	60.941	364.28	515.08	40.33	415.73	563.11	39.262	309.58	613.04	47.764	356.16	753.39	654.07	171.52	866.62	599.79	164.56	804.87	580.74	189.81	817.51	671.16	142.13	887.53	528.09	175.31	904.9	543.25	315.68	898.45	390.73	165.49	994.5	336.09	168.17	931.67	321.04	168.68	960.73	406.01	165.83	1042.1	147.06	181.63	1070	154.05	271.26	1005.7	79.664	243.26	1032.1	67.318	273.68	1017.3	53.531	215.67	1161.7	130.06	138.01	1203.5	161.54	239.1	1232	195.93	173.98	578.44	1471.7	330.16	538.31	1201.6	316.62
301	1.25	804.92	1184.3	338.15	664.57	1424.4	470.62	662.75	1418.6	168.56	664.78	1721.3	302.5	756.43	1012.7	451.07	781.96	1012.2	203.36	544.65	1038.4	346.27	562.01	1031.9	258.01	661.64	930.01	514.12	721.5	918.3	127.34	660.36	1093	486.18	671.8	1099.6	155.54	533.48	1000	297.17	605.22	684.6	473.85	653.06	572.14	430.79	579.05	598.63	442.67	670.54	656.15	462.65	607.78	504.87	416.5	600.75	502.37	297.02	484.46	358.58	421.13	531.08	281.54	401.83	458.63	287.28	407.02	549.92	351.71	416.57	427.15	103.7	380.19	453.34	110.49	289.89	356.48	90.686	327.29	363.75	56.82	299.62	356.39	61.364	364.14	515.13	40.365	415.7	563.21	39.226	309.59	613.14	47.639	356.21	759.65	653.08	171.58	872.99	599.07	164.82	811.22	579.86	189.91	823.74	670.34	142.32	894.25	527.53	175.6	911.16	542.71	316.05	907.21	390.14	165.97	1004.2	337.07	168.65	941.56	321	169.23	969.25	406.43	166.24	1054.9	148.75	182.39	1082.7	156.44	271.99	1019.6	80.801	244.12	1046.3	69.007	274.65	1031.8	54.791	216.63	1174.8	133.72	138.79	1216	166.21	239.82	1243.9	200.96	174.65	583.66	1470.7	329.93	543.44	1200.6	315.99
